<svg width="96" height="96" viewBox="0 0 96 96" fill="none" xmlns="http://www.w3.org/2000/svg">
<g id="Other/ Progress/Circular">
<path id="Path" fill-rule="evenodd" clip-rule="evenodd" d="M8 26L15.48 30.3192C17.0155 27.6522 18.9012 25.2098 21.1102 23.0008C24.3608 19.7502 28.1412 17.2 32.3527 15.422C36.7078 13.5812 41.3322 12.6473 46.1094 12.6473C50.8865 12.6473 55.52 13.5812 59.8661 15.422C64.0776 17.2 67.858 19.7502 71.1086 23.0008C74.3592 26.2514 76.9094 30.0318 78.6873 34.2433C80.5371 38.5894 81.471 43.2229 81.471 48C81.471 52.7771 80.5371 57.4106 78.6963 61.7567C76.9184 65.9682 74.3682 69.7486 71.1175 72.9992C67.8669 76.2498 64.0865 78.8 59.8751 80.578C55.52 82.4188 50.8955 83.3527 46.1184 83.3527C43.0384 83.3527 39.9943 82.9576 37.049 82.1853C34.2024 81.431 31.4457 80.3176 28.8686 78.8718C23.7861 76.0253 19.431 71.9216 16.2971 67.0008C16.0188 66.5608 15.7494 66.1208 15.489 65.6718L8 70C8.32327 70.5657 8.66449 71.1135 9.00571 71.6612C16.8269 83.8914 30.5208 92 46.1094 92C70.4082 92 90.1094 72.2988 90.1094 48C90.1094 23.7012 70.4082 4 46.1094 4C29.8294 4 15.6057 12.8449 8 26Z" fill="#09357B"/>
</g>
</svg>
